<svg xmlns="http://www.w3.org/2000/svg" xmlns:xlink="http://www.w3.org/1999/xlink" width="200" height="200" class="icon" p-id="979" t="1597962292093" version="1.1" viewBox="0 0 1024 1024"><defs><style type="text/css"/></defs><path fill="#1E89FF" d="M173.056 0h677.888c60.183273 0 82.013091 6.283636 103.982545 18.013091 22.016 11.776 39.284364 29.044364 51.060364 51.060364 11.729455 21.969455 18.013091 43.752727 18.013091 103.982545v677.888c0 60.183273-6.283636 82.013091-18.013091 103.982545a122.647273 122.647273 0 0 1-51.060364 51.060364c-21.969455 11.729455-43.752727 18.013091-103.982545 18.013091H173.056c-60.183273 0-82.013091-6.283636-103.982545-18.013091a122.647273 122.647273 0 0 1-51.060364-51.060364C6.283636 932.957091 0 911.173818 0 850.944V173.056c0-60.183273 6.283636-82.013091 18.013091-103.982545A122.647273 122.647273 0 0 1 69.073455 18.013091C91.042909 6.283636 112.826182 0 173.056 0z" p-id="980"/><path fill="#FFF" fill-opacity=".601" d="M0 279.272727h1024v571.671273c0 60.183273-6.283636 82.013091-18.013091 103.982545a122.647273 122.647273 0 0 1-51.060364 51.060364c-21.969455 11.729455-43.752727 18.013091-103.982545 18.013091H173.056c-60.183273 0-82.013091-6.283636-103.982545-18.013091a122.647273 122.647273 0 0 1-51.060364-51.060364C6.283636 932.957091 0 911.173818 0 850.944V279.272727z" opacity=".796" p-id="981"/><path fill="#FFF" d="M898.978909 605.090909l-164.584727 164.584727-32.907637-32.954181L833.163636 605.090909l-131.630545-131.630545 32.907636-32.954182L898.978909 605.090909zM619.054545 374.877091l40.308364 23.272727-256 443.392-40.308364-23.272727 256-443.392z m-326.144 65.629091l32.907637 32.954182L194.094545 605.090909 325.818182 736.721455l-32.907637 32.954181L128.325818 605.090909l164.584727-164.584727z" p-id="982"/><path fill="#EBF8FF" d="M139.636364 93.090909a46.545455 46.545455 0 1 1 0 93.090909 46.545455 46.545455 0 0 1 0-93.090909zM279.272727 93.090909a46.545455 46.545455 0 1 1 0 93.090909 46.545455 46.545455 0 0 1 0-93.090909zM418.909091 93.090909a46.545455 46.545455 0 1 1 0 93.090909 46.545455 46.545455 0 0 1 0-93.090909z" opacity=".609" p-id="983"/></svg>